<svg width="14" height="22" viewBox="0 0 14 22" fill="none" xmlns="http://www.w3.org/2000/svg">
<path d="M0.219727 12.1499L0.728865 11.9301L7.00053 9.19922L13.7813 12.1499L11.2356 17.4149L5.01026 18.2943L0.323869 13.2376L0.219727 12.1499Z" fill="#133444"/>
<path d="M12.381 8.90935C11.2586 7.5555 9.67329 6.68765 7.93759 6.45622L7.82187 6.44465C7.27802 6.37522 6.73417 6.37522 6.19032 6.44465L6.0746 6.45622C4.3389 6.68765 2.75363 7.56707 1.63121 8.90935L1.3535 9.3722L0.879072 10.1475L0.531932 10.7145C0.531932 10.726 0.52036 10.7492 0.508789 10.7608V10.7723L1.26093 11.2236L6.06303 14.0702L6.98874 14.614V7.82164L6.06303 8.23821V7.21993L6.98874 6.80336L7.91445 7.21993L12.6356 9.3722L12.381 8.90935Z" fill="#C42370"/>
<path d="M13.9897 13.8398C13.9782 16.0731 12.9715 18.1791 11.2473 19.5908C10.5878 20.1346 9.84721 20.5396 9.03721 20.8173C8.37765 21.0372 7.69494 21.1413 7.00066 21.1413C3.13583 21.1413 0 17.7046 0 13.8398C0 13.2728 0.0694279 12.7058 0.208284 12.1504L6.98909 16.1656L13.7699 12.1504C13.9203 12.7058 14.0013 13.2728 13.9897 13.8398Z" fill="#1C4D6B"/>
<path d="M6.19091 6.44458L7.0009 6.80329L6.0752 7.23143V6.38672L6.19091 6.44458Z" fill="black"/>
<path d="M6.0752 8.25041L7.0009 7.82227V14.6262L6.0752 14.0708V8.25041Z" fill="black"/>
<path d="M7.00098 7.82227V14.6262L13.5041 10.7845L7.00098 7.82227Z" fill="#1D4259"/>
<path d="M7.00098 0V7.82222L13.5041 10.7845L7.00098 0Z" fill="#4B6B9A"/>
<path d="M7.00114 7.82271V14.6151L6.07543 14.0712L0.509618 10.785H0.498047H0.509618C0.509618 10.7734 0.52119 10.7503 0.532761 10.7387L1.34275 9.38484L6.06386 7.24414V8.25085L7.00114 7.82271Z" fill="#343535"/>
<path d="M7.00031 7.82227V14.6262L6.0746 14.0708L0.508789 10.7845L0.52036 10.773L6.0746 8.25041L7.00031 7.82227Z" fill="#3E5578"/>
<path d="M7.00031 0V7.82222L0.508789 10.7845L7.00031 0Z" fill="#6DB2D8"/>
<path d="M4.37402 20.5859C4.46659 20.6322 4.57074 20.6669 4.66331 20.7017C4.57074 20.6669 4.47817 20.6207 4.37402 20.5859Z" fill="#335F8A"/>
<path d="M4.66309 20.7012C4.75566 20.7359 4.8598 20.7822 4.96394 20.8053C4.87137 20.7822 4.76723 20.7475 4.66309 20.7012Z" fill="#335F8A"/>
<path d="M5.22949 20.8867C5.31049 20.9099 5.37992 20.933 5.46092 20.9446C5.37992 20.933 5.29892 20.9099 5.22949 20.8867Z" fill="#335F8A"/>
<path d="M0.220003 12.1504L7.00081 16.1656C6.90824 16.7789 6.74624 17.3691 6.51481 17.9476C5.97096 19.2668 4.88325 20.6553 2.75413 19.5908C1.03 18.1791 0.0232901 16.0731 0.0117188 13.8398C0.0117188 13.2728 0.0811467 12.7058 0.220003 12.1504Z" fill="#6DB2D8"/>
<path d="M11.2482 19.5913L11.225 19.6029C11.1903 19.626 11.1556 19.6607 11.1209 19.6838L11.1093 19.6954C11.0746 19.7301 11.0283 19.7533 10.9936 19.788C10.9473 19.8227 10.9126 19.8574 10.8663 19.8806C10.82 19.9037 10.7737 19.9384 10.739 19.9731C10.6927 20.0078 10.658 20.0194 10.6233 20.0541L10.6002 20.0657C10.5539 20.0888 10.5192 20.112 10.4844 20.1467C10.4844 20.1467 10.4729 20.1467 10.4729 20.1583C10.4266 20.1814 10.3919 20.2046 10.3456 20.2393C10.2993 20.2624 10.253 20.2856 10.2067 20.3203C10.1604 20.3434 10.1142 20.3666 10.0679 20.3897L9.92902 20.4591C9.88273 20.4823 9.83645 20.5054 9.79016 20.5286C9.74388 20.5517 9.69759 20.5748 9.65131 20.598C9.55874 20.6443 9.4546 20.679 9.36202 20.7137C9.26945 20.7484 9.16531 20.7831 9.06117 20.8178C9.02646 20.8294 8.98017 20.841 8.94546 20.8526L8.8066 20.8988C8.7256 20.922 8.65617 20.9451 8.57517 20.9567C8.55203 20.9683 8.51732 20.9683 8.4826 20.9798L8.43632 20.9914L8.30903 21.0146C8.26275 21.0261 8.2396 21.0261 8.19332 21.0377C8.15861 21.0493 8.12389 21.0493 8.08918 21.0608C8.05446 21.0608 8.00818 21.0724 7.97346 21.084C7.95032 21.084 7.93875 21.084 7.91561 21.0956L7.82304 21.1071H7.77675C7.74204 21.1071 7.70732 21.1187 7.68418 21.1187C7.64947 21.1187 7.60318 21.1303 7.56847 21.1303C7.53375 21.1303 7.51061 21.1303 7.4759 21.1303C7.44118 21.1303 7.41804 21.1303 7.3949 21.1303C7.36018 21.1303 7.32547 21.1303 7.30233 21.1303C7.27918 21.1303 7.20976 21.1303 7.17504 21.1303H6.89733C6.85104 21.1303 6.80476 21.1303 6.77004 21.1303C6.73533 21.1303 6.70062 21.1303 6.67747 21.1303C6.65433 21.1303 6.61962 21.1303 6.59647 21.1303C6.57333 21.1303 6.53862 21.1303 6.5039 21.1303C6.46919 21.1303 6.4229 21.1187 6.38819 21.1187C6.35348 21.1187 6.31876 21.1187 6.29562 21.1071H6.24933C6.22619 21.1071 6.19148 21.0956 6.15676 21.0956C6.13362 21.0956 6.12205 21.0956 6.09891 21.084C6.06419 21.084 6.01791 21.0724 5.98319 21.0608C5.94848 21.0608 5.91377 21.0493 5.87905 21.0377C5.84434 21.0377 5.79805 21.0261 5.76334 21.0146C5.72862 21.003 5.68234 20.9914 5.63605 20.9914L5.58977 20.9798C5.55505 20.9798 5.52034 20.9683 5.4972 20.9683C5.4162 20.9451 5.3352 20.922 5.26577 20.9104L5.12691 20.8641C5.08063 20.8526 5.04592 20.841 5.0112 20.8294C4.90706 20.7947 4.81449 20.76 4.71035 20.7253C4.6062 20.6906 4.51363 20.6443 4.42106 20.6096C4.37478 20.5864 4.32849 20.5633 4.28221 20.5401L4.14335 20.4707L4.0045 20.4013C3.95821 20.3781 3.91192 20.355 3.86564 20.3318C3.81935 20.3087 3.77307 20.2856 3.72678 20.2508C3.6805 20.2277 3.64578 20.2046 3.5995 20.1698L3.58793 20.1583C3.54164 20.1351 3.50693 20.112 3.47221 20.0773L3.44907 20.0657C3.41436 20.0426 3.36807 20.0194 3.33336 19.9847C3.29864 19.9616 3.24079 19.9268 3.20607 19.8921C3.15979 19.8574 3.1135 19.8343 3.07879 19.7996L2.96307 19.707L2.9515 19.6954C2.91679 19.6723 2.88208 19.6376 2.84736 19.6144L2.82422 19.6029C4.94177 20.6558 6.04105 19.2673 6.5849 17.9597C6.81633 17.3927 6.97833 16.791 7.0709 16.1777C7.16347 16.791 7.32547 17.3812 7.5569 17.9597C8.03132 19.2557 9.1306 20.6443 11.2482 19.5913Z" fill="#529BBA"/>
<path d="M8.55176 20.9563C8.63276 20.9332 8.71376 20.91 8.78318 20.8984C8.71376 20.91 8.63276 20.9332 8.55176 20.9563Z" fill="#335F8A"/>
<path d="M9.03711 20.8053C9.14125 20.7706 9.23382 20.7359 9.33796 20.7012C9.24539 20.7475 9.14125 20.7822 9.03711 20.8053Z" fill="#335F8A"/>
<path d="M9.33887 20.7017C9.43144 20.6669 9.53558 20.6207 9.62815 20.5859C9.53558 20.6207 9.44301 20.6669 9.33887 20.7017Z" fill="#335F8A"/>
<path d="M13.9901 13.8398C13.9785 16.0731 12.9718 18.1791 11.2477 19.5908C9.1301 20.6438 8.03083 19.2552 7.48697 17.9476C7.25555 17.3806 7.09355 16.7789 7.00098 16.1656L13.7818 12.1504C13.9206 12.7058 13.9901 13.2728 13.9901 13.8398Z" fill="#4B6B9A"/>
</svg>
